# xmcd CD database file
#
# Track frame offsets:
#	150
#	34954
#	71614
#	96697
#	133193
#	155433
#	183545
#	212043
#	242422
#	277415
#
# Disc length: 3796 seconds
#
# Revision: 0
# Processed by: cddbd v1.5.2PL0 Copyright (c) Steve Scherf et al.
# Submitted via: CDex 1.77
#
DISCID=9f0ed20a
DTITLE=Azar Lawrence - Elementals
DYEAR=2016
DGENRE=Jazz
TTITLE0=La Bossa
TTITLE1=Eye of the Needle
TTITLE2=Elementals
TTITLE3=Brazilian Girls
TTITLE4=Solar Winds
TTITLE5=Koko
TTITLE6=African Chant
TTITLE7=Sing to the World
TTITLE8=It's Easy to Remember
TTITLE9=Karma Sutra
EXTD=YEAR: 2016
EXTT0=
EXTT1=
EXTT2=
EXTT3=
EXTT4=
EXTT5=
EXTT6=
EXTT7=
EXTT8=
EXTT9=
PLAYORDER=
